<svg width="27" height="21" viewBox="0 0 27 21" fill="none" xmlns="http://www.w3.org/2000/svg">
<g clip-path="url(#clip0_12329_15982)">
<path d="M14 19.6875H12.25V17.9375C12.25 17.4592 12.1333 17.0187 11.9 16.6163C11.6667 16.2137 11.3488 15.8958 10.9462 15.6625C10.5437 15.4292 10.1033 15.3125 9.625 15.3125H4.375C3.89667 15.3125 3.45625 15.4292 3.05375 15.6625C2.65125 15.8958 2.33333 16.2137 2.1 16.6163C1.86667 17.0187 1.75 17.4592 1.75 17.9375V19.6875H0V17.9375C0 17.1442 0.195417 16.4121 0.58625 15.7413C0.977083 15.0704 1.50792 14.5396 2.17875 14.1487C2.84958 13.7579 3.58167 13.5625 4.375 13.5625H9.625C10.4183 13.5625 11.1504 13.7579 11.8212 14.1487C12.4921 14.5396 13.0229 15.0704 13.4137 15.7413C13.8046 16.4121 14 17.1442 14 17.9375V19.6875ZM7 11.8125C6.055 11.8125 5.17417 11.5733 4.3575 11.095C3.56417 10.6283 2.93417 9.99833 2.4675 9.205C1.98917 8.38833 1.75 7.5075 1.75 6.5625C1.75 5.6175 1.98917 4.73667 2.4675 3.92C2.93417 3.12667 3.56417 2.49667 4.3575 2.03C5.17417 1.55167 6.055 1.3125 7 1.3125C7.945 1.3125 8.82583 1.55167 9.6425 2.03C10.4358 2.49667 11.0658 3.12667 11.5325 3.92C12.0108 4.73667 12.25 5.6175 12.25 6.5625C12.25 7.5075 12.0108 8.38833 11.5325 9.205C11.0658 9.99833 10.4358 10.6283 9.6425 11.095C8.82583 11.5733 7.945 11.8125 7 11.8125ZM7 10.0625C7.63 10.0625 8.21333 9.905 8.75 9.59C9.28667 9.275 9.7125 8.84917 10.0275 8.3125C10.3425 7.77583 10.5 7.1925 10.5 6.5625C10.5 5.9325 10.3425 5.34917 10.0275 4.8125C9.7125 4.27583 9.28667 3.85 8.75 3.535C8.21333 3.22 7.63 3.0625 7 3.0625C6.37 3.0625 5.78667 3.22 5.25 3.535C4.71333 3.85 4.2875 4.27583 3.9725 4.8125C3.6575 5.34917 3.5 5.9325 3.5 6.5625C3.5 7.1925 3.6575 7.77583 3.9725 8.3125C4.2875 8.84917 4.71333 9.275 5.25 9.59C5.78667 9.905 6.37 10.0625 7 10.0625Z" fill="black"/>
</g>
<defs>
<clipPath id="clip0_12329_15982">
<rect width="21.48" height="21" fill="white" transform="matrix(1 0 0 -1 0 21)"/>
</clipPath>
</defs>
</svg>
