<svg width="22" height="21" viewBox="0 0 22 21" fill="none" xmlns="http://www.w3.org/2000/svg">
<g clip-path="url(#clip0_12329_15978)">
<path d="M1.75 13.5625V3.0625H0V1.3125H2.625C2.87 1.3125 3.07708 1.39708 3.24625 1.56625C3.41542 1.73542 3.5 1.9425 3.5 2.1875V12.6875H14.385L16.135 5.6875H5.25V3.9375H17.255C17.5 3.9375 17.7071 4.02208 17.8762 4.19125C18.0454 4.36042 18.13 4.5675 18.13 4.8125C18.13 4.8825 18.1183 4.9525 18.095 5.0225L15.9075 13.7725C15.8608 13.9708 15.7587 14.1312 15.6012 14.2537C15.4438 14.3762 15.2658 14.4375 15.0675 14.4375H2.625C2.38 14.4375 2.17292 14.3529 2.00375 14.1838C1.83458 14.0146 1.75 13.8075 1.75 13.5625ZM3.5 19.6875C3.185 19.6875 2.89333 19.6088 2.625 19.4513C2.35667 19.2937 2.14375 19.0808 1.98625 18.8125C1.82875 18.5442 1.75 18.2525 1.75 17.9375C1.75 17.6225 1.82875 17.3308 1.98625 17.0625C2.14375 16.7942 2.35667 16.5812 2.625 16.4237C2.89333 16.2662 3.185 16.1875 3.5 16.1875C3.815 16.1875 4.10667 16.2662 4.375 16.4237C4.64333 16.5812 4.85625 16.7942 5.01375 17.0625C5.17125 17.3308 5.25 17.6225 5.25 17.9375C5.25 18.2525 5.17125 18.5442 5.01375 18.8125C4.85625 19.0808 4.64333 19.2937 4.375 19.4513C4.10667 19.6088 3.815 19.6875 3.5 19.6875ZM14 19.6875C13.685 19.6875 13.3933 19.6088 13.125 19.4513C12.8567 19.2937 12.6438 19.0808 12.4862 18.8125C12.3287 18.5442 12.25 18.2525 12.25 17.9375C12.25 17.6225 12.3287 17.3308 12.4862 17.0625C12.6438 16.7942 12.8567 16.5812 13.125 16.4237C13.3933 16.2662 13.685 16.1875 14 16.1875C14.315 16.1875 14.6067 16.2662 14.875 16.4237C15.1433 16.5812 15.3562 16.7942 15.5138 17.0625C15.6713 17.3308 15.75 17.6225 15.75 17.9375C15.75 18.2525 15.6713 18.5442 15.5138 18.8125C15.3562 19.0808 15.1433 19.2937 14.875 19.4513C14.6067 19.6088 14.315 19.6875 14 19.6875Z" fill="black"/>
</g>
<defs>
<clipPath id="clip0_12329_15978">
<rect width="21.48" height="21" fill="white" transform="matrix(1 0 0 -1 0 21)"/>
</clipPath>
</defs>
</svg>
