<svg width="21" height="20" viewBox="0 0 21 20" fill="none" xmlns="http://www.w3.org/2000/svg">
<g clip-path="url(#clip0_12318_24476)">
<path d="M5.3 8.9C5.68889 9.58889 6.16389 10.2139 6.725 10.775C7.28611 11.3361 7.91111 11.8111 8.6 12.2L9.33333 11.1667C9.45556 10.9889 9.61944 10.8778 9.825 10.8333C10.0306 10.7889 10.2278 10.8167 10.4167 10.9167C11.6056 11.5722 12.8778 11.95 14.2333 12.05C14.4444 12.0722 14.625 12.1611 14.775 12.3167C14.925 12.4722 15 12.6611 15 12.8833V16.6C15 16.8111 14.9278 16.9972 14.7833 17.1583C14.6389 17.3194 14.4611 17.4111 14.25 17.4333C13.8056 17.4778 13.3611 17.5 12.9167 17.5C11.1611 17.5 9.48333 17.1611 7.88333 16.4833C6.33889 15.8278 4.97222 14.9056 3.78333 13.7167C2.59444 12.5278 1.67222 11.1611 1.01667 9.61667C0.338889 8.01667 0 6.33889 0 4.58333C0 4.13889 0.0222222 3.69444 0.0666667 3.25C0.0888889 3.03889 0.180556 2.86111 0.341667 2.71667C0.502778 2.57222 0.688889 2.5 0.9 2.5H4.61667C4.83889 2.5 5.02778 2.575 5.18333 2.725C5.33889 2.875 5.42778 3.05555 5.45 3.26667C5.55 4.62222 5.92778 5.89444 6.58333 7.08333C6.68333 7.27222 6.71111 7.46944 6.66667 7.675C6.62222 7.88056 6.51111 8.04444 6.33333 8.16667L5.3 8.9ZM3.2 8.35L4.78333 7.21667C4.33889 6.25 4.03333 5.23333 3.86667 4.16667H1.66667V4.58333C1.66667 6.10555 1.96111 7.56667 2.55 8.96667C3.11667 10.3111 3.91944 11.5028 4.95833 12.5417C5.99722 13.5806 7.18889 14.3833 8.53333 14.95C9.93333 15.5389 11.3944 15.8333 12.9167 15.8333H13.3333V13.6333C12.2667 13.4667 11.25 13.1611 10.2833 12.7167L9.15 14.3C8.69444 14.1222 8.25 13.9111 7.81667 13.6667L7.76667 13.65C6.95556 13.1833 6.21667 12.6167 5.55 11.95C4.88333 11.2833 4.31667 10.5444 3.85 9.73333L3.83333 9.68333C3.58889 9.25 3.37778 8.80556 3.2 8.35Z" fill="#212529"/>
</g>
<defs>
<clipPath id="clip0_12318_24476">
<rect width="20.48" height="20" fill="white" transform="matrix(1 0 0 -1 0 20)"/>
</clipPath>
</defs>
</svg>
