<svg width="15" height="14" viewBox="0 0 15 14" fill="none" xmlns="http://www.w3.org/2000/svg">
<g clip-path="url(#clip0_12329_15969)">
<path d="M9.35667 9.6017L11.8533 12.0984L11.025 12.9267L8.52833 10.43C8.06944 10.7956 7.56778 11.0756 7.02333 11.27C6.44778 11.4723 5.85667 11.5734 5.25 11.5734C4.30111 11.5734 3.41833 11.3361 2.60167 10.8617C1.80833 10.395 1.18222 9.76503 0.723333 8.9717C0.241111 8.15503 0 7.27225 0 6.32336C0 5.37447 0.241111 4.4917 0.723333 3.67503C1.18222 2.8817 1.80833 2.25559 2.60167 1.7967C3.41833 1.31447 4.30111 1.07336 5.25 1.07336C6.19889 1.07336 7.08167 1.31447 7.89833 1.7967C8.69167 2.25559 9.32167 2.8817 9.78833 3.67503C10.2628 4.4917 10.5 5.37447 10.5 6.32336C10.5 6.93003 10.3989 7.52114 10.1967 8.0967C10.0022 8.64114 9.72222 9.14281 9.35667 9.6017ZM8.17833 9.17003C8.54389 8.7967 8.82778 8.36892 9.03 7.8867C9.23222 7.38892 9.33333 6.86781 9.33333 6.32336C9.33333 5.58447 9.14667 4.89614 8.77333 4.25836C8.41556 3.64392 7.92944 3.15781 7.315 2.80003C6.67722 2.4267 5.98889 2.24003 5.25 2.24003C4.51111 2.24003 3.82278 2.4267 3.185 2.80003C2.57056 3.15781 2.08444 3.64392 1.72667 4.25836C1.35333 4.89614 1.16667 5.58447 1.16667 6.32336C1.16667 7.06225 1.35333 7.75059 1.72667 8.38836C2.08444 9.00281 2.57056 9.48892 3.185 9.8467C3.82278 10.22 4.51111 10.4067 5.25 10.4067C5.79444 10.4067 6.31556 10.3056 6.81333 10.1034C7.29556 9.90114 7.72333 9.61725 8.09667 9.2517L8.17833 9.17003Z" fill="white"/>
</g>
<defs>
<clipPath id="clip0_12329_15969">
<rect width="14.48" height="14" fill="white" transform="matrix(1 0 0 -1 0 14)"/>
</clipPath>
</defs>
</svg>
