<svg width="27" height="21" viewBox="0 0 27 21" fill="none" xmlns="http://www.w3.org/2000/svg">
<g clip-path="url(#clip0_12329_15972)">
<path d="M12.6875 2.39752C13.5625 2.39752 14.3675 2.62502 15.1025 3.08002C15.8375 3.53502 16.415 4.15336 16.835 4.93502C17.2783 5.75169 17.5 6.65586 17.5 7.64752C17.5 9.00086 17.185 10.3017 16.555 11.55C16.0183 12.6117 15.2542 13.6325 14.2625 14.6125C13.4925 15.3825 12.5767 16.135 11.515 16.87C10.92 17.2784 10.1383 17.7684 9.17 18.34L8.75 18.585L8.33 18.34C7.36167 17.7684 6.58 17.2784 5.985 16.87C4.92333 16.135 4.0075 15.3825 3.2375 14.6125C2.24583 13.6325 1.48167 12.6117 0.945 11.55C0.315 10.3017 0 9.00086 0 7.64752C0 6.65586 0.221667 5.75169 0.665 4.93502C1.085 4.15336 1.6625 3.53502 2.3975 3.08002C3.1325 2.62502 3.9375 2.39752 4.8125 2.39752C5.57083 2.40919 6.32333 2.59586 7.07 2.95752C7.7 3.26086 8.26 3.65752 8.75 4.14752C9.24 3.65752 9.8 3.26086 10.43 2.95752C11.1767 2.58419 11.9292 2.39752 12.6875 2.39752ZM9.5725 16.065C10.3658 15.5634 11.0717 15.0675 11.69 14.5775C13.02 13.5159 14.0233 12.425 14.7 11.305C15.4 10.1384 15.75 8.92502 15.75 7.66502C15.75 6.98836 15.6158 6.38169 15.3475 5.84502C15.0792 5.30836 14.7117 4.89419 14.245 4.60252C13.7783 4.31085 13.2592 4.15919 12.6875 4.14752C12.2208 4.14752 11.7483 4.26127 11.27 4.48877C10.7917 4.71627 10.3658 5.01669 9.9925 5.39002L8.75 6.63252L7.5075 5.39002C7.13417 5.01669 6.70833 4.71627 6.23 4.48877C5.75167 4.26127 5.27917 4.14752 4.8125 4.14752C4.2525 4.14752 3.73917 4.29919 3.2725 4.60252C2.80583 4.90586 2.43542 5.32294 2.16125 5.85377C1.88708 6.38461 1.75 6.98836 1.75 7.66502C1.75 8.92502 2.1 10.1384 2.8 11.305C3.47667 12.425 4.48 13.5159 5.81 14.5775C6.42833 15.0675 7.13417 15.5634 7.9275 16.065C8.1725 16.2167 8.44667 16.38 8.75 16.555C9.05333 16.38 9.3275 16.2167 9.5725 16.065Z" fill="black"/>
</g>
<defs>
<clipPath id="clip0_12329_15972">
<rect width="21.48" height="21" fill="white" transform="matrix(1 0 0 -1 0 21)"/>
</clipPath>
</defs>
</svg>
